Coordinates
version=1
nRows=29
nColumns=24
inDegrees=yes

Units are S.I. units (second, meters, Newtons, ...)
Angles are in degrees.

endheader
time	pelvis_tilt	pelvis_list	pelvis_rotation	pelvis_tx	pelvis_ty	pelvis_tz	hip_flexion_r	hip_adduction_r	hip_rotation_r	knee_angle_r	ankle_angle_r	subtalar_angle_r	mtp_angle_r	hip_flexion_l	hip_adduction_l	hip_rotation_l	knee_angle_l	ankle_angle_l	subtalar_angle_l	mtp_angle_l	lumbar_extension	lumbar_bending	lumbar_rotation
      1.19616667	     -2.86524011	     -0.33637574	    -12.30101007	     -0.03147914	      0.86967672	      0.35302412	    -16.84208332	      1.98798787	      0.52376477	    -10.20985420	     22.96540374	     16.94829346	     11.31499360	     30.71839256	     -5.34761411	    -14.77073069	     -2.34682689	      5.78935253	     -3.17991438	     -0.87888315	     -3.28798744	      1.94185497	     12.37716573
      1.20033333	     -2.93375173	     -0.20864048	    -12.39787087	     -0.02577191	      0.86875530	      0.35296145	    -16.88994392	      1.74848842	      0.53903337	    -10.69062238	     22.87125452	     16.96638815	     11.57202439	     30.88908136	     -5.27452860	    -14.81099275	     -2.94715417	      5.82957654	     -3.25778052	     -0.86805911	     -3.16311132	      1.67697958	     12.44589920
      1.20450000	     -2.95096836	     -0.09035336	    -12.46472405	     -0.01998513	      0.86795317	      0.35282883	    -17.00715815	      1.51209490	      0.51663211	    -11.14798718	     22.69764355	     16.92260477	     11.69796090	     30.99737929	     -5.18055525	    -14.85394585	     -3.57433936	      5.79021303	     -3.40179940	     -0.85854605	     -3.07916669	      1.45071223	     12.48141950
      1.20866667	     -3.02417453	      0.04274041	    -12.53239214	     -0.01421148	      0.86709154	      0.35267853	    -17.01343928	      1.26791135	      0.49393888	    -11.69636832	     22.48435372	     16.95286846	     15.82801350	     31.19358276	     -5.09329601	    -14.93646137	     -4.29793555	      5.72303035	     -3.46189503	     -0.33611641	     -2.96879713	      1.19531613	     12.53964901
      1.21283333	     -3.08474579	      0.17921625	    -12.57049921	     -0.00833792	      0.86630135	      0.35248047	    -17.05691271	      1.02719826	      0.47997899	    -12.20716292	     22.25852645	     16.91333506	     15.86896372	     31.33315425	     -4.96698304	    -14.90322594	     -4.95730886	      5.57478368	     -3.66224495	     -0.32482643	     -2.83073165	      0.93463780	     12.58771073
      1.21700000	     -3.09914055	      0.32045525	    -12.59174577	     -0.00240217	      0.86562127	      0.35223493	    -17.14276988	      0.77273178	      0.44693314	    -12.73361235	     21.98700662	     16.83609742	     15.90459413	     31.42468748	     -4.81694670	    -14.91622993	     -5.65195310	      5.40604658	     -3.86640664	     -0.31622803	     -2.74777097	      0.67124924	     12.59772746
      1.22116667	     -3.19550278	      0.48598386	    -12.61680971	      0.00353929	      0.86486245	      0.35197120	    -17.09243001	      0.50791205	      0.43294978	    -13.34845138	     21.72099431	     16.82464576	     16.02573586	     31.59359533	     -4.65246984	    -14.87105111	     -6.33609568	      5.13714209	     -4.14123197	     -0.28443545	     -2.56734671	      0.36903128	     12.61009537
      1.22533333	     -3.26529356	      0.63462464	    -12.60831545	      0.00950650	      0.86417261	      0.35161350	    -17.05563725	      0.25688688	      0.36003617	    -14.00354907	     21.46348809	     16.83340391	     16.35772646	     31.73709960	     -4.47152087	    -14.77258715	     -7.03590989	      4.78246600	     -4.58211282	     -0.19482996	     -2.42742828	      0.12210767	     12.61072123
      1.22950000	     -3.30756710	      0.82614977	    -12.59070276	      0.01561058	      0.86359247	      0.35126642	    -17.06592332	     -0.03931203	      0.31760809	    -14.60521307	     21.03029642	     16.73987282	     16.57608484	     31.82517073	     -4.23721302	    -14.73451628	     -7.69954449	      4.43652924	     -4.86374038	     -0.13802487	     -2.28835485	     -0.23593940	     12.57184340
      1.23366667	     -3.33185679	      1.00123730	    -12.53539643	      0.02172003	      0.86306503	      0.35080860	    -17.06699008	     -0.32135741	      0.19384996	    -15.26638773	     20.55615665	     16.65275268	     21.08462988	     31.89920469	     -3.98253839	    -14.61244230	     -8.36817342	      3.98551635	     -5.36800710	      1.08680611	     -2.18514456	     -0.53353953	     12.51758489
      1.23783333	     -3.39203640	      1.19104570	    -12.48559801	      0.02787938	      0.86255312	      0.35037112	    -17.02176317	     -0.60531498	      0.14985919	    -15.93820960	     20.04141569	     16.53903981	     21.12071709	     32.01750201	     -3.73324350	    -14.57531475	     -9.06846191	      3.56358120	     -5.65978521	      1.09274826	     -2.03125079	     -0.86411872	     12.46294202
      1.24200000	     -3.47962221	      1.37231542	    -12.40857897	      0.03400470	      0.86202491	      0.34983417	    -16.89667741	     -0.87409454	      0.05227329	    -16.71918395	     19.60478981	     16.46335138	     21.30660622	     32.15993063	     -3.46000139	    -14.38158724	     -9.74032244	      3.02404893	     -6.28607417	      1.13019123	     -1.85789264	     -1.14845101	     12.36151206
      1.24616667	     -3.47196404	      1.59592884	    -12.29398247	      0.04029034	      0.86170485	      0.34921841	    -16.89246754	     -1.20969311	     -0.14068572	    -17.44623133	     18.99286964	     16.43927785	     22.36463659	     32.15571749	     -3.08662757	    -14.15691841	    -10.30905645	      2.41767156	     -6.91524037	      1.35489261	     -1.78335038	     -1.52424375	     12.28354644
      1.25033333	     -3.57119235	      1.80102877	    -12.20315185	      0.04653963	      0.86126833	      0.34868533	    -16.73681190	     -1.49105389	     -0.18580692	    -18.24637384	     18.37565430	     16.26678780	     22.48803612	     32.33571619	     -2.81163562	    -14.13984909	    -11.06763201	      2.01903299	     -7.16272115	      1.37514958	     -1.56551579	     -1.87969726	     12.18366196
      1.25450000	     -3.68896216	      1.99114996	    -12.07579124	      0.05273863	      0.86083009	      0.34802013	    -16.50912688	     -1.75521648	     -0.31130534	    -19.15615975	     17.81007395	     16.14580132	     22.85586835	     32.52399411	     -2.50378151	    -13.91461390	    -11.77224427	      1.44957306	     -7.79615326	      1.43456574	     -1.35990925	     -2.16119343	     12.01747732
      1.25866667	     -3.70744570	      2.23441105	    -11.92168492	      0.05911951	      0.86059881	      0.34731588	    -16.40431999	     -2.10321070	     -0.54211913	    -20.00342036	     17.01461057	     16.03484560	     27.72754569	     32.58034370	     -2.10877114	    -13.75726582	    -12.43351423	      0.96695845	     -8.28531488	      2.24421208	     -1.22926434	     -2.57427183	     11.92094162
      1.26283333	     -3.80121497	      2.43318542	    -11.76742804	      0.06541322	      0.86030737	      0.34661571	    -16.18413185	     -2.37339105	     -0.65692375	    -20.93091638	     16.25850592	     15.87499919	     27.80918497	     32.75113846	     -1.78600049	    -13.59745770	    -13.18211443	      0.51488589	     -8.69194634	      2.25084171	     -1.05558979	     -2.88526371	     11.76409634
      1.26700000	     -3.87617330	      2.65764856	    -11.59050392	      0.07176116	      0.86007880	      0.34585382	    -15.95502707	     -2.68052226	     -0.84643663	    -21.90757964	     15.48374070	     15.76520539	     27.99011203	     32.89111785	     -1.41208466	    -13.39752617	    -13.90606513	      0.08447542	     -9.15907319	      2.26297708	     -0.88616233	     -3.24133948	     11.60466790
      1.27116667	     -3.93355108	      2.89159058	    -11.39544544	      0.07815617	      0.85991066	      0.34505029	    -15.72922848	     -3.00265093	     -1.06388633	    -22.90730769	     14.66095026	     15.67743068	     28.40536783	     33.01577686	     -1.01164831	    -13.16789922	    -14.65012155	     -0.25090334	     -9.68478517	      2.28838941	     -0.73253045	     -3.62532671	     11.44040811
      1.27533333	     -3.96880620	      3.12321094	    -11.19231502	      0.08458828	      0.85983694	      0.34426938	    -15.51665890	     -3.32104443	     -1.27321971	    -23.91669957	     13.72352113	     15.52981835	     28.54674106	     33.12102042	     -0.62955931	    -13.04528459	    -15.42417187	     -0.51476764	     -9.84533480	      2.29390825	     -0.60943831	     -4.02003725	     11.34483070
      1.27950000	     -4.01599947	      3.38313450	    -10.97670271	      0.09099024	      0.85974705	      0.34336814	    -15.21542600	     -3.69415107	     -1.59213511	    -25.05807945	     12.83045114	     15.43399563	     33.16884103	     33.23005211	     -0.18438723	    -12.79325954	    -16.16013143	     -0.81587765	    -10.34676909	      2.41072199	     -0.47151538	     -4.41159926	     11.17501089
      1.28366667	     -4.07766569	      3.58820420	    -10.74496724	      0.09739090	      0.85970234	      0.34250056	    -14.91032475	     -3.98430880	     -1.82751364	    -26.18065964	     11.82955933	     15.29282625	     33.22838547	     33.37782771	      0.18842121	    -12.57888494	    -16.98650111	     -0.98510516	    -10.62864077	      2.40546334	     -0.33621172	     -4.73446193	     10.99304666
      1.28783333	     -4.10814046	      3.83030652	    -10.50451171	      0.10383385	      0.85971896	      0.34158771	    -14.60547246	     -4.33481024	     -2.12465279	    -27.35637397	     10.85278732	     15.20639271	     33.39301118	     33.48123496	      0.61807733	    -12.34490835	    -17.79133487	     -1.09219639	    -10.97742891	      2.38841794	     -0.22555607	     -5.12716575	     10.81476610
      1.29200000	     -4.07786752	      4.06211478	    -10.25794876	      0.11032041	      0.85987219	      0.34067264	    -14.35816859	     -4.68916896	     -2.44588191	    -28.53627120	      9.77810933	     15.05783441	     33.44051279	     33.51332565	      1.03880712	    -12.17779430	    -18.61173018	     -1.06479087	    -11.09855544	      2.38395565	     -0.18286094	     -5.50276258	     10.74208881
      1.29616667	     -4.10987759	      4.32810667	     -9.99963527	      0.11673272	      0.85995091	      0.33966415	    -13.97173943	     -5.08917483	     -2.80391300	    -29.83850960	      8.75478554	     15.04823700	     34.00967873	     33.58108413	      1.53367743	    -11.79894371	    -19.33448537	     -1.13301747	    -11.59115488	      2.29041608	     -0.09444092	     -5.90720939	     10.47753742
      1.30033333	     -4.09162476	      4.56596742	     -9.73423407	      0.12321164	      0.86014481	      0.33872693	    -13.65893508	     -5.45712626	     -3.14300089	    -31.09268144	      7.61218781	     14.91458985	     34.09403678	     33.62091883	      1.96230481	    -11.63047495	    -20.16254396	     -1.04300943	    -11.63627511	      2.27584310	     -0.04734940	     -6.31668392	     10.40531877
      1.30450000	     -4.03514005	      4.85787876	     -9.48323486	      0.12966676	      0.86041934	      0.33768539	    -13.32038007	     -5.93250340	     -3.56065594	    -32.44336955	      6.43188174	     14.84873534	     36.40409019	     33.56769650	      2.48880781	    -11.36377702	    -20.85079488	     -1.05922774	    -12.01844696	      1.70706871	     -0.04938379	     -6.74819408	     10.18606495
      1.30866667	     -4.00213880	      5.07114949	     -9.19224103	      0.13609985	      0.86066137	      0.33666038	    -12.97173872	     -6.29829050	     -3.95963736	    -33.77994307	      5.28656492	     14.70685957	     36.41392161	     33.57603314	      2.91996248	    -11.13132491	    -21.67207916	     -0.77345840	    -12.03378119	      1.70598168	     -0.03111572	     -7.09151927	     10.13549080
      1.31283333	     -3.96285885	      5.30574207	     -8.91709787	      0.14250365	      0.86094836	      0.33564408	    -12.58574806	     -6.70448307	     -4.35282299	    -35.17033897	      4.08120496	     14.58479413	     36.42332032	     33.54695403	      3.37131548	    -10.90876027	    -22.42370943	     -0.53738073	    -12.08777741	      1.69902048	     -0.02829046	     -7.46386855	     10.03954037
